<mxfile host="app.diagrams.net" modified="2023-12-20T04:39:46.518Z" agent="Mozilla/5.0 (Windows NT 10.0; Win64; x64) AppleWebKit/537.36 (KHTML, like Gecko) Chrome/120.0.0.0 Safari/537.36" etag="VkRzxZ-JT9sMT1JYnfFG" version="22.1.11" type="github">
  <diagram name="Page-1" id="XXBjbmQS_C-S8g48oErQ">
    <mxGraphModel dx="794" dy="446" grid="1" gridSize="10" guides="1" tooltips="1" connect="1" arrows="1" fold="1" page="1" pageScale="1" pageWidth="850" pageHeight="1100" math="0" shadow="0">
      <root>
        <mxCell id="0" />
        <mxCell id="1" parent="0" />
        <mxCell id="vsckaJ0-dZqWZamOi-LE-1" value="" style="rounded=0;whiteSpace=wrap;html=1;" vertex="1" parent="1">
          <mxGeometry x="270" y="120" width="320" height="590" as="geometry" />
        </mxCell>
        <mxCell id="vsckaJ0-dZqWZamOi-LE-2" value="" style="sketch=0;points=[[0,0,0],[0.25,0,0],[0.5,0,0],[0.75,0,0],[1,0,0],[0,1,0],[0.25,1,0],[0.5,1,0],[0.75,1,0],[1,1,0],[0,0.25,0],[0,0.5,0],[0,0.75,0],[1,0.25,0],[1,0.5,0],[1,0.75,0]];outlineConnect=0;fontColor=#232F3E;fillColor=#8C4FFF;strokeColor=#ffffff;dashed=0;verticalLabelPosition=bottom;verticalAlign=top;align=center;html=1;fontSize=12;fontStyle=0;aspect=fixed;shape=mxgraph.aws4.resourceIcon;resIcon=mxgraph.aws4.route_53;" vertex="1" parent="1">
          <mxGeometry x="375" y="70" width="78" height="78" as="geometry" />
        </mxCell>
        <mxCell id="vsckaJ0-dZqWZamOi-LE-3" value="&lt;b&gt;&lt;font style=&quot;font-size: 24px;&quot;&gt;AWS&lt;/font&gt;&lt;/b&gt;" style="text;html=1;strokeColor=none;fillColor=none;align=center;verticalAlign=middle;whiteSpace=wrap;rounded=0;" vertex="1" parent="1">
          <mxGeometry x="510" y="135" width="60" height="30" as="geometry" />
        </mxCell>
        <mxCell id="vsckaJ0-dZqWZamOi-LE-4" value="Route 53" style="text;html=1;strokeColor=none;fillColor=none;align=center;verticalAlign=middle;whiteSpace=wrap;rounded=0;" vertex="1" parent="1">
          <mxGeometry x="420" y="148" width="60" height="30" as="geometry" />
        </mxCell>
        <mxCell id="vsckaJ0-dZqWZamOi-LE-5" value="" style="sketch=0;points=[[0,0,0],[0.25,0,0],[0.5,0,0],[0.75,0,0],[1,0,0],[0,1,0],[0.25,1,0],[0.5,1,0],[0.75,1,0],[1,1,0],[0,0.25,0],[0,0.5,0],[0,0.75,0],[1,0.25,0],[1,0.5,0],[1,0.75,0]];outlineConnect=0;fontColor=#232F3E;fillColor=#8C4FFF;strokeColor=#ffffff;dashed=0;verticalLabelPosition=bottom;verticalAlign=top;align=center;html=1;fontSize=12;fontStyle=0;aspect=fixed;shape=mxgraph.aws4.resourceIcon;resIcon=mxgraph.aws4.cloudfront;" vertex="1" parent="1">
          <mxGeometry x="375" y="205" width="78" height="78" as="geometry" />
        </mxCell>
        <mxCell id="vsckaJ0-dZqWZamOi-LE-6" value="CloudFront" style="text;html=1;strokeColor=none;fillColor=none;align=center;verticalAlign=middle;whiteSpace=wrap;rounded=0;" vertex="1" parent="1">
          <mxGeometry x="424" y="283" width="60" height="30" as="geometry" />
        </mxCell>
        <mxCell id="vsckaJ0-dZqWZamOi-LE-7" value="" style="rounded=0;whiteSpace=wrap;html=1;" vertex="1" parent="1">
          <mxGeometry x="305" y="318" width="250" height="347" as="geometry" />
        </mxCell>
        <mxCell id="vsckaJ0-dZqWZamOi-LE-8" value="" style="html=1;verticalLabelPosition=bottom;align=center;labelBackgroundColor=#ffffff;verticalAlign=top;strokeWidth=2;strokeColor=#0080F0;shadow=0;dashed=0;shape=mxgraph.ios7.icons.flag;" vertex="1" parent="1">
          <mxGeometry x="325" y="335" width="30" height="30" as="geometry" />
        </mxCell>
        <mxCell id="vsckaJ0-dZqWZamOi-LE-9" value="Region" style="text;html=1;strokeColor=none;fillColor=none;align=center;verticalAlign=middle;whiteSpace=wrap;rounded=0;" vertex="1" parent="1">
          <mxGeometry x="305" y="365" width="60" height="30" as="geometry" />
        </mxCell>
        <mxCell id="vsckaJ0-dZqWZamOi-LE-10" value="" style="sketch=0;outlineConnect=0;fontColor=#232F3E;gradientColor=none;fillColor=#8C4FFF;strokeColor=none;dashed=0;verticalLabelPosition=bottom;verticalAlign=top;align=center;html=1;fontSize=12;fontStyle=0;aspect=fixed;pointerEvents=1;shape=mxgraph.aws4.application_load_balancer;" vertex="1" parent="1">
          <mxGeometry x="376" y="365" width="78" height="78" as="geometry" />
        </mxCell>
        <mxCell id="vsckaJ0-dZqWZamOi-LE-11" value="Application Load Balancer" style="text;html=1;strokeColor=none;fillColor=none;align=center;verticalAlign=middle;whiteSpace=wrap;rounded=0;" vertex="1" parent="1">
          <mxGeometry x="435" y="443" width="60" height="30" as="geometry" />
        </mxCell>
        <mxCell id="vsckaJ0-dZqWZamOi-LE-12" value="" style="endArrow=classic;startArrow=classic;html=1;rounded=0;" edge="1" parent="1" target="vsckaJ0-dZqWZamOi-LE-5">
          <mxGeometry width="50" height="50" relative="1" as="geometry">
            <mxPoint x="415" y="365" as="sourcePoint" />
            <mxPoint x="435" y="575" as="targetPoint" />
          </mxGeometry>
        </mxCell>
        <mxCell id="vsckaJ0-dZqWZamOi-LE-13" value="" style="rounded=0;whiteSpace=wrap;html=1;" vertex="1" parent="1">
          <mxGeometry x="335" y="485" width="170" height="140" as="geometry" />
        </mxCell>
        <mxCell id="vsckaJ0-dZqWZamOi-LE-19" value="" style="endArrow=none;html=1;rounded=0;" edge="1" parent="1" target="vsckaJ0-dZqWZamOi-LE-27" source="vsckaJ0-dZqWZamOi-LE-10">
          <mxGeometry width="50" height="50" relative="1" as="geometry">
            <mxPoint x="410" y="480" as="sourcePoint" />
            <mxPoint x="409" y="590" as="targetPoint" />
          </mxGeometry>
        </mxCell>
        <mxCell id="vsckaJ0-dZqWZamOi-LE-22" value="" style="outlineConnect=0;dashed=0;verticalLabelPosition=bottom;verticalAlign=top;align=center;html=1;shape=mxgraph.aws3.internet_gateway;fillColor=#F58534;gradientColor=none;" vertex="1" parent="1">
          <mxGeometry x="250" y="96" width="69" height="72" as="geometry" />
        </mxCell>
        <mxCell id="vsckaJ0-dZqWZamOi-LE-23" value="Internet Gateway" style="text;html=1;strokeColor=none;fillColor=none;align=center;verticalAlign=middle;whiteSpace=wrap;rounded=0;" vertex="1" parent="1">
          <mxGeometry x="290" y="168" width="60" height="30" as="geometry" />
        </mxCell>
        <mxCell id="vsckaJ0-dZqWZamOi-LE-24" value="" style="image;aspect=fixed;perimeter=ellipsePerimeter;html=1;align=center;shadow=0;dashed=0;spacingTop=3;image=img/lib/active_directory/internet_cloud.svg;" vertex="1" parent="1">
          <mxGeometry x="300" y="20" width="50" height="31.5" as="geometry" />
        </mxCell>
        <mxCell id="vsckaJ0-dZqWZamOi-LE-25" value="" style="endArrow=classic;startArrow=classic;html=1;rounded=0;entryX=0.25;entryY=1;entryDx=0;entryDy=0;exitX=0.5;exitY=0;exitDx=0;exitDy=0;exitPerimeter=0;" edge="1" parent="1" source="vsckaJ0-dZqWZamOi-LE-22" target="vsckaJ0-dZqWZamOi-LE-24">
          <mxGeometry width="50" height="50" relative="1" as="geometry">
            <mxPoint x="450" y="160" as="sourcePoint" />
            <mxPoint x="500" y="110" as="targetPoint" />
          </mxGeometry>
        </mxCell>
        <mxCell id="vsckaJ0-dZqWZamOi-LE-26" value="Internet" style="text;html=1;strokeColor=none;fillColor=none;align=center;verticalAlign=middle;whiteSpace=wrap;rounded=0;" vertex="1" parent="1">
          <mxGeometry x="314" y="51.5" width="60" height="30" as="geometry" />
        </mxCell>
        <mxCell id="vsckaJ0-dZqWZamOi-LE-27" value="" style="sketch=0;outlineConnect=0;fontColor=#232F3E;gradientColor=none;fillColor=#7AA116;strokeColor=none;dashed=0;verticalLabelPosition=bottom;verticalAlign=top;align=center;html=1;fontSize=12;fontStyle=0;aspect=fixed;pointerEvents=1;shape=mxgraph.aws4.bucket_with_objects;" vertex="1" parent="1">
          <mxGeometry x="376.5" y="495" width="75" height="78" as="geometry" />
        </mxCell>
        <mxCell id="vsckaJ0-dZqWZamOi-LE-28" value="S3 Bucket (with Objects)" style="text;html=1;strokeColor=none;fillColor=none;align=center;verticalAlign=middle;whiteSpace=wrap;rounded=0;" vertex="1" parent="1">
          <mxGeometry x="374" y="575" width="80" height="30" as="geometry" />
        </mxCell>
        <mxCell id="vsckaJ0-dZqWZamOi-LE-32" value="" style="endArrow=classic;html=1;rounded=0;exitX=0.5;exitY=0;exitDx=0;exitDy=0;exitPerimeter=0;entryX=0.5;entryY=1;entryDx=0;entryDy=0;entryPerimeter=0;" edge="1" parent="1" source="vsckaJ0-dZqWZamOi-LE-5" target="vsckaJ0-dZqWZamOi-LE-2">
          <mxGeometry width="50" height="50" relative="1" as="geometry">
            <mxPoint x="380" y="190" as="sourcePoint" />
            <mxPoint x="430" y="140" as="targetPoint" />
          </mxGeometry>
        </mxCell>
      </root>
    </mxGraphModel>
  </diagram>
</mxfile>
